<mxfile host="65bd71144e">
    <diagram id="z1rad_NkXqNnStKqBakh" name="Page-1">
        <mxGraphModel dx="1102" dy="919" grid="1" gridSize="10" guides="1" tooltips="1" connect="1" arrows="1" fold="1" page="1" pageScale="1" pageWidth="1600" pageHeight="900" math="0" shadow="0">
            <root>
                <mxCell id="0"/>
                <mxCell id="1" parent="0"/>
                <mxCell id="12" style="edgeStyle=orthogonalEdgeStyle;html=1;fontSize=16;" parent="1" source="2" target="9" edge="1">
                    <mxGeometry relative="1" as="geometry"/>
                </mxCell>
                <mxCell id="2" value="&lt;font style=&quot;font-size: 16px;&quot;&gt;RoLA&lt;br&gt;Fine-tuning&lt;br&gt;&lt;/font&gt;" style="rounded=0;whiteSpace=wrap;html=1;fontFamily=freesentation;" parent="1" vertex="1">
                    <mxGeometry x="410" y="470" width="120" height="60" as="geometry"/>
                </mxCell>
                <mxCell id="5" style="edgeStyle=none;html=1;fontSize=16;" parent="1" source="3" target="16" edge="1">
                    <mxGeometry relative="1" as="geometry">
                        <mxPoint x="-120" y="335" as="targetPoint"/>
                    </mxGeometry>
                </mxCell>
                <mxCell id="3" value="&lt;font style=&quot;font-size: 16px;&quot;&gt;IMDG Code&lt;br&gt;(PDF)&lt;br&gt;&lt;/font&gt;" style="rounded=0;whiteSpace=wrap;html=1;fontFamily=freesentation;" parent="1" vertex="1">
                    <mxGeometry x="80" y="235" width="120" height="60" as="geometry"/>
                </mxCell>
                <mxCell id="7" style="edgeStyle=none;html=1;fontSize=16;" parent="1" source="4" target="6" edge="1">
                    <mxGeometry relative="1" as="geometry"/>
                </mxCell>
                <mxCell id="4" value="&lt;span style=&quot;font-size: 16px;&quot;&gt;Question - Answers (CSV)&lt;/span&gt;" style="rounded=0;whiteSpace=wrap;html=1;fontFamily=freesentation;" parent="1" vertex="1">
                    <mxGeometry x="80" y="485" width="120" height="60" as="geometry"/>
                </mxCell>
                <mxCell id="11" style="edgeStyle=orthogonalEdgeStyle;html=1;entryX=0.5;entryY=0;entryDx=0;entryDy=0;fontSize=16;" parent="1" source="6" target="22" edge="1">
                    <mxGeometry relative="1" as="geometry"/>
                </mxCell>
                <mxCell id="6" value="&lt;span style=&quot;font-size: 16px;&quot;&gt;Question - Answers (CSV)&lt;/span&gt;" style="rounded=0;whiteSpace=wrap;html=1;fontFamily=freesentation;" parent="1" vertex="1">
                    <mxGeometry x="80" y="605" width="120" height="60" as="geometry"/>
                </mxCell>
                <mxCell id="8" value="" style="aspect=fixed;html=1;points=[];align=center;image;fontSize=12;image=img/lib/azure2/ai_machine_learning/Cognitive_Services.svg;" parent="1" vertex="1">
                    <mxGeometry x="425" y="710" width="85" height="60" as="geometry"/>
                </mxCell>
                <mxCell id="14" style="edgeStyle=orthogonalEdgeStyle;html=1;entryX=0.529;entryY=0;entryDx=0;entryDy=0;entryPerimeter=0;fontSize=16;" parent="1" source="9" target="8" edge="1">
                    <mxGeometry relative="1" as="geometry"/>
                </mxCell>
                <mxCell id="9" value="&lt;font style=&quot;font-size: 16px;&quot;&gt;adapters.safetensors&lt;br&gt;&lt;/font&gt;" style="rounded=0;whiteSpace=wrap;html=1;fontFamily=freesentation;" parent="1" vertex="1">
                    <mxGeometry x="410" y="590" width="120" height="60" as="geometry"/>
                </mxCell>
                <mxCell id="15" value="&lt;div style=&quot;background-color: rgb(30, 30, 30); font-weight: normal; font-size: 14px; line-height: 21px;&quot;&gt;&lt;div style=&quot;&quot;&gt;&lt;font face=&quot;freesentation&quot; style=&quot;&quot; color=&quot;#ffffff&quot;&gt;mlx-community/gemma-2-27b-it-4bit&lt;/font&gt;&lt;/div&gt;&lt;/div&gt;" style="text;whiteSpace=wrap;html=1;fontSize=16;align=center;" parent="1" vertex="1">
                    <mxGeometry x="330" y="770" width="310" height="40" as="geometry"/>
                </mxCell>
                <mxCell id="18" style="edgeStyle=orthogonalEdgeStyle;html=1;entryX=0.5;entryY=0;entryDx=0;entryDy=0;fontFamily=freesentation;fontSize=16;fontColor=#FFFFFF;" parent="1" source="16" target="4" edge="1">
                    <mxGeometry relative="1" as="geometry"/>
                </mxCell>
                <mxCell id="16" value="" style="aspect=fixed;html=1;points=[];align=center;image;fontSize=12;image=img/lib/azure2/ai_machine_learning/Cognitive_Services.svg;" parent="1" vertex="1">
                    <mxGeometry x="97.5" y="345" width="85" height="60" as="geometry"/>
                </mxCell>
                <mxCell id="17" value="&lt;div style=&quot;background-color: rgb(30, 30, 30); font-weight: normal; font-size: 14px; line-height: 21px;&quot;&gt;&lt;div style=&quot;&quot;&gt;&lt;font face=&quot;freesentation&quot; style=&quot;&quot; color=&quot;#ffffff&quot;&gt;mlx-community/gemma-2-27b-it-4bit&lt;/font&gt;&lt;/div&gt;&lt;/div&gt;" style="text;whiteSpace=wrap;html=1;fontSize=16;align=center;" parent="1" vertex="1">
                    <mxGeometry y="510" width="310" height="40" as="geometry"/>
                </mxCell>
                <mxCell id="19" value="&lt;div style=&quot;color: rgb(212, 212, 212); background-color: rgb(30, 30, 30); font-family: Menlo, Monaco, &amp;quot;Courier New&amp;quot;, monospace; font-weight: normal; font-size: 14px; line-height: 21px;&quot;&gt;&lt;div&gt;&lt;span style=&quot;color: #d4d4d4;&quot;&gt;&quot;What are the minimum size requirements for the marks and the UN packaging symbol on pressure receptacles, and how do these requirements differ based on the diameter of the pressure receptacle?&quot;,&lt;/span&gt;&lt;/div&gt;&lt;div&gt;&lt;span style=&quot;color: #569cd6;&quot;&gt;&lt;br&gt;&lt;/span&gt;&lt;/div&gt;&lt;div&gt;&lt;span style=&quot;color: #569cd6;&quot;&gt;&quot;The IMDG Code outlines specific size requirements for marks and the UN packaging symbol on pressure receptacles.&lt;/span&gt;&lt;/div&gt;&lt;div&gt;&lt;span style=&quot;color: #569cd6;&quot;&gt;For pressure receptacles with a diameter of 140 mm or greater:&lt;/span&gt;&lt;/div&gt;&lt;div&gt;&lt;span style=&quot;color: #569cd6;&quot;&gt;* The minimum size of marks (excluding the UN packaging symbol) is 5 mm.&lt;/span&gt;&lt;/div&gt;&lt;div&gt;&lt;span style=&quot;color: #569cd6;&quot;&gt;* The minimum size of the UN packaging symbol is 10 mm.&lt;/span&gt;&lt;/div&gt;&lt;div&gt;&lt;span style=&quot;color: #569cd6;&quot;&gt;For pressure receptacles with a diameter less than 140 mm:&lt;/span&gt;&lt;/div&gt;&lt;div&gt;&lt;span style=&quot;color: #569cd6;&quot;&gt;* The minimum size of marks (excluding the UN packaging symbol) is 2.5 mm.&lt;/span&gt;&lt;/div&gt;&lt;div&gt;&lt;span style=&quot;color: #569cd6;&quot;&gt;* The minimum size of the UN packaging symbol is 5 mm.&lt;/span&gt;&lt;/div&gt;&lt;/div&gt;" style="text;whiteSpace=wrap;html=1;fontSize=16;fontFamily=freesentation;fontColor=#FFFFFF;" parent="1" vertex="1">
                    <mxGeometry x="660" y="155" width="870" height="250" as="geometry"/>
                </mxCell>
                <mxCell id="21" value="&lt;div style=&quot;color: rgb(212, 212, 212); background-color: rgb(30, 30, 30); font-family: Menlo, Monaco, &amp;quot;Courier New&amp;quot;, monospace; font-weight: normal; font-size: 12px; line-height: 21px;&quot;&gt;&lt;div style=&quot;font-size: 12px;&quot;&gt;&lt;span style=&quot;color: rgb(244, 71, 71); font-size: 12px;&quot;&gt;!&lt;/span&gt;&lt;span style=&quot;color: rgb(212, 212, 212); font-size: 12px;&quot;&gt;python -m mlx_lm.lora \&lt;/span&gt;&lt;/div&gt;&lt;div style=&quot;font-size: 12px;&quot;&gt;&lt;span style=&quot;color: rgb(212, 212, 212); font-size: 12px;&quot;&gt;    &lt;/span&gt;&lt;span style=&quot;color: rgb(244, 71, 71); font-size: 12px;&quot;&gt;--&lt;/span&gt;&lt;span style=&quot;color: rgb(212, 212, 212); font-size: 12px;&quot;&gt;model mlx-community/gemma-&lt;/span&gt;&lt;span style=&quot;color: rgb(181, 206, 168); font-size: 12px;&quot;&gt;2&lt;/span&gt;&lt;span style=&quot;color: rgb(212, 212, 212); font-size: 12px;&quot;&gt;-&lt;/span&gt;&lt;span style=&quot;color: rgb(244, 71, 71); font-size: 12px;&quot;&gt;27b&lt;/span&gt;&lt;span style=&quot;color: rgb(212, 212, 212); font-size: 12px;&quot;&gt;-it-&lt;/span&gt;&lt;span style=&quot;color: rgb(244, 71, 71); font-size: 12px;&quot;&gt;4bit&lt;/span&gt;&lt;span style=&quot;color: rgb(212, 212, 212); font-size: 12px;&quot;&gt; \&lt;/span&gt;&lt;/div&gt;&lt;div style=&quot;font-size: 12px;&quot;&gt;&lt;span style=&quot;color: rgb(212, 212, 212); font-size: 12px;&quot;&gt;    &lt;/span&gt;&lt;span style=&quot;color: rgb(244, 71, 71); font-size: 12px;&quot;&gt;--&lt;/span&gt;&lt;span style=&quot;color: rgb(212, 212, 212); font-size: 12px;&quot;&gt;train \&lt;/span&gt;&lt;/div&gt;&lt;div style=&quot;font-size: 12px;&quot;&gt;&lt;span style=&quot;color: rgb(212, 212, 212); font-size: 12px;&quot;&gt;    &lt;/span&gt;&lt;span style=&quot;color: rgb(244, 71, 71); font-size: 12px;&quot;&gt;--&lt;/span&gt;&lt;span style=&quot;color: rgb(212, 212, 212); font-size: 12px;&quot;&gt;data data \&lt;/span&gt;&lt;/div&gt;&lt;div style=&quot;font-size: 12px;&quot;&gt;&lt;span style=&quot;color: rgb(212, 212, 212); font-size: 12px;&quot;&gt;    &lt;/span&gt;&lt;span style=&quot;color: rgb(244, 71, 71); font-size: 12px;&quot;&gt;--&lt;/span&gt;&lt;span style=&quot;color: rgb(212, 212, 212); font-size: 12px;&quot;&gt;iters &lt;/span&gt;&lt;span style=&quot;color: rgb(181, 206, 168); font-size: 12px;&quot;&gt;500&lt;/span&gt;&lt;span style=&quot;color: rgb(212, 212, 212); font-size: 12px;&quot;&gt; \&lt;/span&gt;&lt;/div&gt;&lt;div style=&quot;font-size: 12px;&quot;&gt;&lt;span style=&quot;color: rgb(212, 212, 212); font-size: 12px;&quot;&gt;    &lt;/span&gt;&lt;span style=&quot;color: rgb(244, 71, 71); font-size: 12px;&quot;&gt;--&lt;/span&gt;&lt;span style=&quot;color: rgb(212, 212, 212); font-size: 12px;&quot;&gt;batch-size &lt;/span&gt;&lt;span style=&quot;color: rgb(181, 206, 168); font-size: 12px;&quot;&gt;4&lt;/span&gt;&lt;span style=&quot;color: rgb(212, 212, 212); font-size: 12px;&quot;&gt; \&lt;/span&gt;&lt;/div&gt;&lt;div style=&quot;font-size: 12px;&quot;&gt;&lt;span style=&quot;color: rgb(212, 212, 212); font-size: 12px;&quot;&gt;    &lt;/span&gt;&lt;span style=&quot;color: rgb(244, 71, 71); font-size: 12px;&quot;&gt;--&lt;/span&gt;&lt;span style=&quot;color: rgb(212, 212, 212); font-size: 12px;&quot;&gt;learning-rate &lt;/span&gt;&lt;span style=&quot;color: rgb(181, 206, 168); font-size: 12px;&quot;&gt;1e-5&lt;/span&gt;&lt;span style=&quot;color: rgb(212, 212, 212); font-size: 12px;&quot;&gt; \&lt;/span&gt;&lt;/div&gt;&lt;div style=&quot;font-size: 12px;&quot;&gt;&lt;span style=&quot;color: rgb(212, 212, 212); font-size: 12px;&quot;&gt;    &lt;/span&gt;&lt;span style=&quot;color: rgb(244, 71, 71); font-size: 12px;&quot;&gt;--&lt;/span&gt;&lt;span style=&quot;color: rgb(212, 212, 212); font-size: 12px;&quot;&gt;steps-per-report &lt;/span&gt;&lt;span style=&quot;color: rgb(181, 206, 168); font-size: 12px;&quot;&gt;10&lt;/span&gt;&lt;span style=&quot;color: rgb(212, 212, 212); font-size: 12px;&quot;&gt; \&lt;/span&gt;&lt;/div&gt;&lt;div style=&quot;font-size: 12px;&quot;&gt;&lt;span style=&quot;color: rgb(212, 212, 212); font-size: 12px;&quot;&gt;    &lt;/span&gt;&lt;span style=&quot;color: rgb(244, 71, 71); font-size: 12px;&quot;&gt;--&lt;/span&gt;&lt;span style=&quot;color: rgb(212, 212, 212); font-size: 12px;&quot;&gt;steps-per-eval &lt;/span&gt;&lt;span style=&quot;color: rgb(181, 206, 168); font-size: 12px;&quot;&gt;10&lt;/span&gt;&lt;span style=&quot;color: rgb(212, 212, 212); font-size: 12px;&quot;&gt; \&lt;/span&gt;&lt;/div&gt;&lt;div style=&quot;font-size: 12px;&quot;&gt;&lt;span style=&quot;color: rgb(212, 212, 212); font-size: 12px;&quot;&gt;    &lt;/span&gt;&lt;span style=&quot;color: rgb(244, 71, 71); font-size: 12px;&quot;&gt;--&lt;/span&gt;&lt;span style=&quot;color: rgb(212, 212, 212); font-size: 12px;&quot;&gt;adapter-path checkpoints/adapters \&lt;/span&gt;&lt;/div&gt;&lt;div style=&quot;font-size: 12px;&quot;&gt;&lt;span style=&quot;color: rgb(212, 212, 212); font-size: 12px;&quot;&gt;    &lt;/span&gt;&lt;span style=&quot;color: rgb(244, 71, 71); font-size: 12px;&quot;&gt;--&lt;/span&gt;&lt;span style=&quot;color: rgb(212, 212, 212); font-size: 12px;&quot;&gt;save-every &lt;/span&gt;&lt;span style=&quot;color: rgb(181, 206, 168); font-size: 12px;&quot;&gt;10&lt;/span&gt;&lt;span style=&quot;color: rgb(212, 212, 212); font-size: 12px;&quot;&gt; \&lt;/span&gt;&lt;/div&gt;&lt;div style=&quot;font-size: 12px;&quot;&gt;&lt;span style=&quot;color: rgb(212, 212, 212); font-size: 12px;&quot;&gt;    &lt;/span&gt;&lt;span style=&quot;color: rgb(244, 71, 71); font-size: 12px;&quot;&gt;--&lt;/span&gt;&lt;span style=&quot;color: rgb(212, 212, 212); font-size: 12px;&quot;&gt;max-seq-length &lt;/span&gt;&lt;span style=&quot;color: rgb(181, 206, 168); font-size: 12px;&quot;&gt;2048&lt;/span&gt;&lt;span style=&quot;color: rgb(212, 212, 212); font-size: 12px;&quot;&gt; \&lt;/span&gt;&lt;/div&gt;&lt;div style=&quot;font-size: 12px;&quot;&gt;&lt;span style=&quot;color: rgb(212, 212, 212); font-size: 12px;&quot;&gt;    &lt;/span&gt;&lt;span style=&quot;color: rgb(244, 71, 71); font-size: 12px;&quot;&gt;--&lt;/span&gt;&lt;span style=&quot;color: rgb(212, 212, 212); font-size: 12px;&quot;&gt;seed &lt;/span&gt;&lt;span style=&quot;color: rgb(181, 206, 168); font-size: 12px;&quot;&gt;42&lt;/span&gt;&lt;span style=&quot;color: rgb(212, 212, 212); font-size: 12px;&quot;&gt; \&lt;/span&gt;&lt;/div&gt;&lt;div style=&quot;font-size: 12px;&quot;&gt;&lt;span style=&quot;color: rgb(212, 212, 212); font-size: 12px;&quot;&gt;    &lt;/span&gt;&lt;span style=&quot;color: rgb(244, 71, 71); font-size: 12px;&quot;&gt;--&lt;/span&gt;&lt;span style=&quot;color: rgb(212, 212, 212); font-size: 12px;&quot;&gt;lora-layers &lt;/span&gt;&lt;span style=&quot;color: rgb(181, 206, 168); font-size: 12px;&quot;&gt;16&lt;/span&gt;&lt;/div&gt;&lt;/div&gt;" style="text;whiteSpace=wrap;html=1;fontSize=12;fontFamily=freesentation;fontColor=#FFFFFF;" parent="1" vertex="1">
                    <mxGeometry x="310" y="140" width="330" height="310" as="geometry"/>
                </mxCell>
                <mxCell id="23" style="edgeStyle=orthogonalEdgeStyle;html=1;entryX=0;entryY=0.5;entryDx=0;entryDy=0;" parent="1" source="22" target="2" edge="1">
                    <mxGeometry relative="1" as="geometry"/>
                </mxCell>
                <mxCell id="22" value="&lt;span style=&quot;font-size: 16px;&quot;&gt;train.jsonl&lt;br&gt;valid.jasonl&lt;br&gt;&lt;/span&gt;" style="rounded=0;whiteSpace=wrap;html=1;fontFamily=freesentation;" parent="1" vertex="1">
                    <mxGeometry x="80" y="730" width="120" height="60" as="geometry"/>
                </mxCell>
            </root>
        </mxGraphModel>
    </diagram>
</mxfile>